<?xml version="1.0" encoding="utf-8"?>
<!-- Generator: Adobe Illustrator 24.1.1, SVG Export Plug-In . SVG Version: 6.00 Build 0)  -->
<svg version="1.1" id="Layer_1" xmlns="http://www.w3.org/2000/svg" xmlns:xlink="http://www.w3.org/1999/xlink" x="0px" y="0px"
	 viewBox="0 0 170 170" style="enable-background:new 0 0 170 170;" xml:space="preserve">
<style type="text/css">
	.st0{fill:none;stroke:#A5A5A5;stroke-width:4;stroke-miterlimit:10;}
	.st1{fill:none;stroke:#000000;stroke-width:2;stroke-miterlimit:10;}
</style>
<g>
	<circle class="st0" cx="85.1" cy="86" r="80.5"/>
	<path class="st1" d="M91.1,43.9c14.4,15.5,20.5,21.8,22.2,39.6c0.4,5.8-2.5,12.4-7.4,17.5L74.2,70.6l11-9.7l-16-4.5L50.6,74.9
		l9.9,9.9l7.9-8.3l29.9,30.1c-10.1,5.4-23.8,5.8-35.7-5.8l-0.2-0.2l-19.1,18.2c8.5,8.3,0,0,8.8,8.5c2.5-3.4,16.2-16.6,16.2-16.4
		l-0.2-0.2c-0.4-0.7-0.9-1.1-1.3-1.6l1.3,1.6c12.4,13.3,28.8,13.9,40.5,6.1l11.2,11.5l7.4-7l-11.5-11c4.7-6.1,7.9-13.9,7.9-23.4
		C122.5,72.4,112,58,91.1,43.9z"/>
</g>
</svg>
