<?xml version="1.0" encoding="utf-8"?>
<!-- Generator: Adobe Illustrator 24.1.1, SVG Export Plug-In . SVG Version: 6.00 Build 0)  -->
<svg version="1.1" id="Layer_1" xmlns="http://www.w3.org/2000/svg" xmlns:xlink="http://www.w3.org/1999/xlink" x="0px" y="0px"
	 viewBox="0 0 170 170" style="enable-background:new 0 0 170 170;" xml:space="preserve">
<style type="text/css">
	.st0{fill:none;stroke:#A5A5A5;stroke-width:4;stroke-miterlimit:10;}
</style>
<g>
	<circle class="st0" cx="85.1" cy="86" r="80.5"/>
</g>
<g>
	<path d="M63.4,90.4c-1-2.8-1.9-5.6-2.8-8.3c-2.6-7.4-5.1-14.8-7.7-22.3c-1.1-3.1-2.2-6.2-3.2-9.4c-0.1-0.3-0.3-0.7,0-1
		c0.4-0.3,0.9-0.5,1.5-0.5c0.3,0,0.3,0.3,0.4,0.5c0.3,0.8,0.3,0.8,1.1,0.4c2.9-1.7,5.9-3.4,9-4.7c6.1-2.5,12.5-4.2,19.1-4.9
		c2.6-0.3,5.3-0.5,7.9-0.1c3.2,0.4,6.1,2,8.9,3.4c1.1,0.5,2,1.3,2.8,2.2c1.2,1.3,1.3,2,0.5,3.6c-0.1,0.1-0.1,0.2-0.2,0.3
		c-0.9,1.9-0.3,3.2,1.6,4c0.8,0.3,1.6,0.5,2.4,0.7c1,0.2,2.1,0.6,3,1c3.3,1.4,4.9,4.3,4.4,7.9c-0.3,2.2-1.1,4.2-1.5,6.4
		c-0.2,1.3-0.5,2.5-0.8,3.8c-0.3,1-0.1,2.1,0,3.1c0.2,1.2,0.1,2.3,0,3.5c-0.1,1.7,0.2,3.3,0.5,5c0.3,1.8,0.8,3.6,0.4,5.4
		c-0.2,0.7-0.4,1.4-0.9,2c-0.4,0.4-0.6,0.3-0.8-0.2c-0.2-0.7-0.3-1.3,0-2c0-0.1,0.1-0.1,0.1-0.2c1.1-2.1,0.5-3.2-1.8-3.6
		c-0.6-0.1-1.1-0.1-1.7-0.1c-2.1,0-4.1,0.1-6.2-0.1c-0.9-0.1-1.7-0.3-2.5-0.8c-0.8-0.5-1-1.1-0.8-2c0.2-0.8,0.8-1.4,1.3-2
		c0.8-0.9,0.6-1.3-0.6-1.5c-1-0.2-2,0-3,0.1c-5.1,0.8-10.2,2.1-15.2,3.3c-3.6,0.9-6.9,2.4-10.2,4.2c-0.9,0.5-1.7,1-2.6,1.4
		c-0.4,0.2-0.5,0.5-0.3,0.8c0.5,1.2,0.8,2.5,1.4,3.7c0.7,1.7,0.6,3.4,0.6,5.2c0,0.4-0.2,0.5-0.6,0.5c-1,0-1.9,0-2.9,0
		c-0.5,0-0.6-0.2-0.6-0.7c0-0.8,0-1.6,0-2.4c-0.1-1.4-0.9-2.1-2-1.9c-0.6,0.1-1.1,0.5-1.3,1.1C60,95.8,60,96.2,60,96.7
		c0,4.1,0,8.2,0,12.3c0,0.4,0,0.7,0.1,1.1c0.2,0.9,0.7,1.3,1.6,1.3c1,0,1.5-0.3,1.7-1.3c0.2-1.2,0.1-2.3,0.1-3.5c0-0.9,0.1-1,1-1
		c0.8,0,1.6,0,2.4,0c0.4,0,0.7,0.2,0.7,0.7c0,1.7,0.1,3.4-0.3,5c-0.6,2.4-2.5,4-5,4.1c-0.9,0-1.8,0-2.7-0.2
		c-2.3-0.7-3.8-2.7-3.9-5.5c-0.1-4.6-0.1-9.2,0-13.7c0.1-4.3,3.1-6.1,6.9-5.6C62.8,90.4,63.1,90.4,63.4,90.4z M86.1,50.9
		c0.3,0.2,0.5,0.4,0.7,0.5c1.6,1.2,2.9,2.6,3.9,4.4c1.4,2.6,1.7,5.3,0.3,8c-0.3,0.5-0.5,0.7-1,0.2c-2-2-4-4.1-6.1-6.1
		c-0.4-0.4-0.4-0.7,0-1c0.7-0.6,1.3-1.3,2-2c0.2-0.2,0.3-0.4-0.1-0.5c-1.1-0.2-2.2-0.4-3.3-0.6c-0.5-0.1-0.8,0.1-1.1,0.4
		c-0.8,0.9-1.7,1.7-2.6,2.6c-0.4,0.4-1.2,0.8-1.2,1.3c0,0.6,0.8,1,1.2,1.4c1.2,1.3,1.3,1.3,2.5,0c0.4-0.5,0.7-0.4,1.1,0
		c1.8,1.8,3.6,3.6,5.4,5.4c0.3,0.3,1,0.6,0.8,1c-0.2,0.5-0.9,0.5-1.4,0.6c-0.2,0-0.3,0-0.5,0c-2,0.2-3.7-0.6-5.3-1.7
		c-0.8-0.6-1-0.5-1.6,0.2c-0.1,0.1-0.2,0.3-0.3,0.4c-0.3,0.4-0.7,0.7-1.2,0.2c-0.2-0.1-0.4-0.2-0.6,0c-0.2,0.2-0.1,0.5,0.1,0.6
		c0.6,0.5,0.2,0.8-0.2,1.1c-0.8,0.6-1.6,1.1-2.1,2c-0.3,0.6-0.5,1.2,0,1.7c0.3,0.4,1.1,0.3,1.7-0.1c0.3-0.2,0.5-0.4,0.7-0.7
		c0.4-0.6,0.8-1.2,1.1-1.9c0.2-0.5,0.5-0.7,1-0.3c0.2,0.2,0.5,0.3,0.7,0c0.2-0.2,0-0.4-0.1-0.6c-0.1-0.1-0.1-0.2-0.2-0.2
		c-0.3-0.3-0.2-0.5,0-0.8c0.3-0.3,0.5-0.2,0.7,0c0.3,0.2,0.6,0.5,0.9,0.7c2.8,2.2,5.9,2.9,9.2,1.2c0.4-0.2,0.6-0.1,0.8,0.2
		c0.7,0.8,1.5,1.5,2.3,2.3c0.5,0.5,0.9,0.4,1.4-0.2c0.4-0.4,0.7-0.8,0.1-1.3c-0.6-0.6-1.2-1.3-1.9-1.8c-0.6-0.5-0.6-0.9-0.1-1.5
		c1.2-1.6,1.8-3.4,1.7-5.4C94.8,55.5,90.2,52.2,86.1,50.9z"/>
	<path d="M88.9,130.4c-10.4,0-20.9,0-31.3,0c-0.2,0-0.5,0-0.7,0c-0.7,0.1-1-0.2-1-0.9c0-1.8,0-3.6,0-5.4c0-2.5,0-4.9,0-7.4
		c0-1.2,0-1.2,1.1-1.2c13.7,0,27.3,0,41,0c7.6,0,15.2,0,22.7,0c1.1,0,1.1,0,1.1,1.1c0,4.2,0,8.5,0,12.7c0,1.1,0,1.1-1.1,1.1
		C110.1,130.4,99.5,130.4,88.9,130.4z M114.9,121.6c0.3,0.3,0.4,0.6,0.4,0.8c0.5,1.7,0.9,3.5,1.4,5.2c0.4,1.3,0,1.2,1.5,1.2
		c0,0,0.1,0,0.1,0c0.5,0,0.7-0.2,0.7-0.7c0-3.5,0-7,0-10.4c0-0.7-0.4-0.8-1-0.8c-0.5,0-0.9,0.1-0.9,0.7c0,1.4,0,2.7,0,4.1
		c0,0.2,0.1,0.5-0.2,0.8c-0.1-0.3-0.2-0.5-0.2-0.7c-0.4-1.4-0.8-2.9-1.1-4.3c-0.1-0.4-0.2-0.6-0.6-0.6c-0.6,0.1-1.3-0.2-1.9,0.2
		c-0.1,0.1-0.1,0.2-0.1,0.4c0,3.6,0,7.2,0,10.7c0,0.2,0,0.4,0.2,0.5c0.8,0.4,1.6-0.1,1.6-0.9c0-1.1,0-2.1,0-3.2
		C114.9,123.6,114.9,122.7,114.9,121.6z M68.3,122.8c0,1.7,0,3.4,0,5.1c0,0.5,0.2,0.8,0.7,0.8c0.9,0,1.8,0,2.7,0
		c1.5-0.1,2.4-1,2.5-2.4c0-0.6,0-1.2,0-1.8c0-0.7-0.2-1.3-0.8-1.8c-0.2-0.2-0.3-0.4-0.1-0.6c0.9-1.1,0.8-2.4,0.5-3.6
		c-0.2-1-0.9-1.5-1.9-1.6c-1-0.1-1.9,0-2.9-0.1c-0.6,0-0.8,0.2-0.8,0.8C68.3,119.4,68.3,121.1,68.3,122.8z M82.2,122.7
		c0,1.7,0,3.4,0,5.1c0,0.7,0.3,0.9,0.9,0.9c0.6,0,1.1,0,1.1-0.9c0-1.1,0-2.2,0-3.3c0-0.6,0.3-0.7,0.8-0.6c0.8,0.1,0.9,0.7,0.9,1.3
		c0,0.9,0,1.8,0.1,2.8c0,0.3,0.1,0.6,0.5,0.6c0.5,0,1,0.2,1.5-0.1c0.1,0,0.1-0.2,0-0.3c-0.2-1.1,0-2.2-0.1-3.3
		c0-0.7-0.2-1.3-0.7-1.8c-0.2-0.2-0.3-0.3-0.1-0.6c1-1,0.8-2.3,0.8-3.5c-0.1-1.5-0.9-2.2-2.4-2.3c-0.8,0-1.7,0-2.5,0
		c-0.6,0-0.8,0.2-0.7,0.8C82.2,119.3,82.2,121,82.2,122.7z M105.9,122.7C105.9,122.7,105.9,122.7,105.9,122.7c0,0.6,0,1.1,0,1.7
		c0,0.6,0,1.1,0,1.7c0.1,1.7,1.1,2.7,2.8,2.7c1.7,0,2.8-1,2.9-2.6c0-2.3,0-4.6,0-6.9c0-1.7-1.2-2.7-2.9-2.7c-1.7,0-2.8,1-2.8,2.7
		C105.9,120.5,105.9,121.6,105.9,122.7z M92.2,116.8c-0.3,0-0.6,0-1,0c-0.3,0-0.5,0.1-0.6,0.5c-0.6,3.6-1.2,7.2-1.7,10.7
		c0,0.3,0,0.5,0.3,0.6c0.9,0.3,1.6-0.1,1.7-1c0-0.2,0.1-0.5,0.1-0.7c0-0.2,0.1-0.3,0.3-0.3c1.1-0.3,1.8,0,2,1.2c0,0,0,0.1,0,0.1
		c0,0.8,0.3,0.8,1.6,0.7c0.7,0,0.5-0.6,0.4-1c-0.5-3.2-1-6.5-1.5-9.7C93.6,116.8,93.6,116.8,92.2,116.8z M75.6,122.8
		c0,1.7,0,3.5,0,5.2c0,0.4,0,0.7,0.5,0.7c1.4,0,2.7,0,4.1,0c0.2,0,0.4,0,0.5-0.3c0.3-0.9,0-1.5-1-1.5c-0.1,0-0.2,0-0.3,0
		c-2.1,0-1.8,0.2-1.8-1.8c0-1.4,0-1.4,1.5-1.4c0.2,0,0.4,0,0.6,0c0.2,0,0.4-0.2,0.4-0.4c0.3-1.1,0-1.4-1.1-1.4c-0.3,0-0.5,0-0.8,0
		c-0.4,0-0.6-0.2-0.6-0.6c0-0.6,0-1.2,0-1.8c0-0.4,0.2-0.6,0.6-0.6c0.6,0,1.2,0,1.8,0c0.7,0,0.7-0.5,0.8-1c0-0.5-0.1-0.9-0.8-0.9
		c-1.2,0-2.4,0-3.6,0c-0.6,0-0.9,0.2-0.9,0.9C75.6,119.4,75.6,121.1,75.6,122.8z M97.4,123.7c0,1.4,0,2.7,0,4.1c0,0.9,0,0.9,1,0.9
		c1,0,1,0,1-0.9c0-2.5,0-5.1,0-7.6c0-1.4,0-1.4,1.3-1.5c0.6,0,0.6-0.4,0.6-0.8c0-0.4,0.2-1.1-0.5-1.1c-1.6,0-3.2,0-4.8,0
		c-0.2,0-0.4,0.1-0.5,0.4c-0.3,1,0,1.5,1.1,1.5c0.7,0,0.9,0.3,0.8,0.9C97.4,121,97.4,122.3,97.4,123.7z M58.6,122.8
		c0,1.7,0,3.5,0,5.2c0,0.4,0,0.7,0.5,0.7c1.3,0,2.7,0,4,0c0.8,0,0.5-0.6,0.6-1.1c0-0.5-0.1-0.8-0.6-0.8c-0.5,0-1,0-1.5,0
		c-0.9,0-1,0-1-1c0-2.7,0-5.5,0-8.2c0-0.8-0.4-0.9-1-0.9c-0.6,0-1,0.1-1,0.9C58.7,119.4,58.6,121.1,58.6,122.8z M104.5,122.8
		c0-1.7,0-3.4,0-5.1c0-0.9-0.1-0.9-1-0.9c-1,0-1.1,0-1.1,0.9c0,3.2,0,6.5,0,9.7c0,1.3,0,1.2,1.3,1.3c0.7,0,0.9-0.3,0.9-0.9
		C104.4,126.1,104.5,124.5,104.5,122.8z M66.8,122.8c0-1.7,0-3.4,0-5.1c0-0.9-0.5-0.8-1.1-0.9c-0.6,0-1,0.1-0.9,0.8
		c0,3.4,0,6.8,0,10.2c0,0.9,0.5,0.8,1.1,0.8c0.6,0,1-0.1,0.9-0.8C66.7,126.2,66.8,124.5,66.8,122.8z"/>
	<path d="M99.9,106.2c0.3-2.2,0.7-4.3,1-6.4c0.4-2.8,0.8-5.6,1.2-8.5c0.1-0.6,0.3-0.8,0.9-0.8c1.4,0,2.8,0,4.2,0
		c0.6,0,0.8,0.2,0.8,0.8c0,7.7,0,15.4,0,23c0,0.6-0.2,0.8-0.8,0.8c-0.8,0-1.5,0-2.3,0c-0.9,0-1-0.1-1-1c0-4.2,0-8.3,0-12.5
		c0-0.2,0-0.3,0-0.5c0,0,0,0,0,0c-0.7,4.5-1.3,8.9-2,13.4c-0.1,0.5-0.3,0.7-0.8,0.7c-0.9,0-1.8,0-2.7,0c-0.5,0-0.7-0.2-0.8-0.7
		c-0.7-4.4-1.4-8.8-2.2-13.2c0,4.1,0,8.3,0,12.4c0,1.5,0,1.5-1.6,1.5c-0.5,0-1,0-1.6,0c-0.5,0-0.7-0.2-0.7-0.7c0-0.2,0-0.4,0-0.7
		c0-7.3,0-14.6,0-21.9c0-1.3,0-1.3,1.4-1.3c1.2,0,2.4,0,3.7,0c0.5,0,0.8,0.1,0.9,0.7c0.8,4.9,1.6,9.8,2.4,14.8
		C99.8,106.1,99.9,106.1,99.9,106.2z"/>
	<path d="M70.2,102.8c0-3.7,0-7.5,0-11.2c0-1,0.1-1.1,1.1-1.1c2,0,4.1-0.2,6.1,0.1c2.5,0.4,4,1.7,4.4,4.3c0.4,2.2,0.4,4.5,0,6.8
		c-0.5,2.9-2.4,4.3-5.6,4.4c-1.7,0.1-1.7,0.1-1.7,1.7c0,2.1,0,4.2,0,6.3c0,0.8-0.1,1-1,1c-0.8,0-1.5,0-2.3,0c-0.9,0-1-0.1-1-1
		C70.2,110.4,70.2,106.6,70.2,102.8z M74.6,98.3c0,0.8,0,1.6,0,2.5c0,1.5-0.2,1.4,1.4,1.4c1.2,0,1.6-0.5,1.7-1.6c0-1.3,0-2.6,0-3.9
		c0-1.8-0.4-2.1-2.1-2.1c-0.1,0-0.2,0-0.3,0c-0.5-0.1-0.7,0.2-0.7,0.7C74.6,96.2,74.6,97.3,74.6,98.3z"/>
	<path d="M111.2,102.8c0-3.8,0-7.6,0-11.3c0-0.9,0.1-1,1-1c0.8,0,1.6,0,2.4,0c0.7,0,0.9,0.3,0.9,1c0,4.5,0,9,0,13.6
		c0,1.7,0,3.4,0,5.1c0,1,0,1,1.1,1c1.3,0,2.7,0,4,0c1.1,0,1.2,0.1,1.2,1.1c0,0.7,0,1.4,0,2.1c0,0.5-0.2,0.8-0.7,0.8c-3,0.1-6,0-9,0
		c-0.7,0-0.8-0.3-0.8-0.9C111.2,110.4,111.2,106.6,111.2,102.8z"/>
	<path d="M84.2,102.8c0-3.8,0-7.6,0-11.3c0-0.9,0-1,1-1c0.8,0,1.6,0,2.5,0c0.7,0,0.9,0.2,0.9,0.9c0,2.2,0,4.3,0,6.5
		c0,5.4,0,10.8,0,16.2c0,1-0.1,1.1-1.1,1.1c-0.8,0-1.6-0.1-2.4,0c-0.6,0-0.8-0.2-0.8-0.8C84.2,110.5,84.2,106.7,84.2,102.8z"/>
	<path d="M70.5,125.2c0-0.3,0-0.5,0-0.8c0-0.4-0.1-0.9,0.6-0.9c0.6,0,1.1,0.1,1.1,0.8c0.1,0.6,0,1.2,0,1.8c0,0.7-0.6,0.8-1.1,0.8
		c-0.6,0-0.6-0.4-0.6-0.9C70.5,125.7,70.5,125.4,70.5,125.2z"/>
	<path d="M70.5,120.2c0-0.2,0-0.5,0-0.7c0-0.3,0-0.7,0.4-0.7c0.4,0,0.9,0,1,0.5c0.2,0.5,0.2,1.1,0,1.6c-0.1,0.6-0.6,0.8-1.1,0.7
		c-0.6,0-0.3-0.5-0.4-0.9C70.4,120.5,70.5,120.4,70.5,120.2z"/>
	<path d="M84.2,120.4c0-0.3,0-0.6,0-0.9c0-0.4,0-0.8,0.5-0.8c0.5,0,0.9,0.1,1,0.7c0.1,0.6,0.1,1.3,0,1.9c-0.1,0.6-0.5,0.8-1.1,0.7
		c-0.6,0-0.4-0.5-0.5-0.8C84.2,121,84.2,120.7,84.2,120.4z"/>
	<path d="M107.9,122.8c0-1.1,0-2.2,0-3.3c0-0.5,0.2-0.9,0.8-0.9c0.6,0,0.8,0.4,0.9,0.9c0,0.2,0,0.4,0,0.7c0,1.2,0,2.3,0,3.5
		c0,0.7,0,1.4,0,2.2c0,0.6-0.2,1.2-0.9,1.1c-0.7,0-0.8-0.6-0.8-1.2C107.9,124.8,107.9,123.8,107.9,122.8
		C107.9,122.8,107.9,122.8,107.9,122.8z"/>
	<path d="M92.2,120.5c0.3,0.8,0.2,1.6,0.4,2.5c0.1,0.3,0.1,0.7,0.2,1c0,0.3,0.2,0.6-0.1,0.8c-0.3,0.2-0.7,0.1-1,0
		c-0.3-0.1-0.2-0.3-0.2-0.5c0.2-1.3,0.4-2.5,0.5-3.8C92,120.4,92.1,120.5,92.2,120.5z"/>
</g>
</svg>
