<?xml version="1.0" encoding="utf-8"?>
<!-- Generator: Adobe Illustrator 24.1.1, SVG Export Plug-In . SVG Version: 6.00 Build 0)  -->
<svg version="1.1" id="Layer_1" xmlns="http://www.w3.org/2000/svg" xmlns:xlink="http://www.w3.org/1999/xlink" x="0px" y="0px"
	 viewBox="0 0 170 170" style="enable-background:new 0 0 170 170;" xml:space="preserve">
<style type="text/css">
	.st0{fill:none;stroke:#A5A5A5;stroke-width:4;stroke-miterlimit:10;}
</style>
<g>
	<circle class="st0" cx="83.3" cy="86" r="80.5"/>
	<g>
		<path d="M122.8,111c-0.8,0.1-1.9,0-3-0.4c-1.6-0.6-3-0.2-4.5,0.3c-5.9,2.1-11.9,4.1-17.8,6.1c-0.9,0.3-1.6,0.6-1.9,1.7
			c-0.3,1.1-1.3,1.7-2.3,2c-3,0.6-5.9,0.7-8.8-0.7c-1.7-0.9-2-1.5-1.4-3.3c0.3-0.8-0.4-1-0.8-1.2c-4.1-2.9-8.2-5.8-12.3-8.7
			c-0.4-0.3-0.9-0.5-1.2-0.9c-2.3-2.2-4.7-2.7-7.9-1.8c-3,0.9-6.1,0.1-9.1-0.9c-2.3-0.7-4.4-1.8-6.5-3.1c-2.5-1.5-4-3.8-5.4-6.2
			c-1.3-2.4-1.6-5-2.1-7.6c-0.8-5,0.7-9.4,2.8-13.8c0.7-1.4,1.1-2.9,1.4-4.3c0.5-2.5,1.8-4.3,4.1-5.5c9.6-5.3,19.7-9.3,30.6-10.9
			c8.4-1.3,16.8-1.2,25.3,0c2.1,0.3,3.6,1.5,5,2.9c3.2,3.5,4.5,7.6,4.1,12.3c-0.1,1.5-0.9,2.7-1.9,3.7c-0.9,0.9-0.8,1.5,0,2.3
			c6.3,6.3,11.6,13.4,16.1,21.1c1.7,2.9,2.9,6,3.5,9.3c0.2,0.9,0.4,1.9-0.2,2.8c-0.1,0.2-0.1,0.5-0.1,0.7c0.3,2.4-0.3,3.3-2.7,3.9
			C125,111,124.1,111,122.8,111z M112.5,78.4c-0.6-0.7-1.3-1.5-1.9-2.2c-6-6.7-12.8-11.2-22.5-9c-5.4,1.2-10.8,2.1-16,4.2
			c-1.7,0.7-2.9,1.9-3.8,3.6c-0.7,1.5-1.5,2.9-2.2,4.3c-0.5,1-1.3,2-2.3,2c-2.1,0-3.5,1.3-5.1,2.1c-2.7,1.3-5.6,1.7-8.6,1.8
			c-0.6,0-1.3-0.2-1.6,0.5c-0.4,0.8,0.3,4.4,1.1,4.9c3,2.1,6.1,4.3,9.1,6.4c1.1,0.8,2.1,0.9,3.4,0.2c1.2-0.7,2.2-0.3,2.9,1
			c0.4,0.7,0.6,1.5,0.6,2.3c0,1.2,0.6,1.9,1.5,2.6c6.7,4.7,13.4,9.4,20.2,14.1c0.4,0.3,0.9,1,1.4,0.6c0.5-0.3,0.2-1,0.2-1.6
			c-0.2-4-1.8-7.6-3.8-11.1c-5-8.6-10.6-16.7-16.6-24.6c-0.4-0.5-1-1-1-1.8c0.8,0.4,1.2,1,1.6,1.5c6,8,11.8,16.1,16.8,24.8
			c2.2,3.8,3.6,7.7,3.7,12.1c0,1.2,0.6,1.1,1.4,0.8c2.4-0.8,4.7-1.6,7.1-2.4c9.3-3.2,18.7-6.5,28-9.6c1.3-0.4,1.9-1.1,1.5-2.4
			c-0.1-0.3-0.1-0.7-0.2-1c-0.6-2.7-0.7-2.8-3.3-1.9c-10.6,3.5-21.2,7-31.7,10.5c-0.7,0.2-1.3,0.6-2.5,0.3c2.2-0.8,3.9-1.4,5.8-2
			c9.6-3.3,19.3-6.5,28.9-9.8c1.8-0.6,1.9-0.6,1-2.4c-1.6-3.2-3.2-6.3-5.4-9.1C117.6,84.8,115.4,81.3,112.5,78.4z M59.9,67.2
			c1,0.1,1.3,0.5,1.7,0.9c0.7,0.7,1.1,0.7,1.6-0.2c0.4-0.8,1-1.6,1.8-2c1.2-0.6,1.6-1.4,1.5-2.7c-0.1-1.5,0.6-2.4,2.1-2.7
			c0.7-0.2,1.5-0.4,2.2-0.5c1.1-0.2,1.9,0.2,2.3,1.3c0.3,1,0.9,1.2,1.8,0.9c3.5-0.9,7-1.7,10.5-2.3c0.8-0.1,1.4-0.5,1.4-1.4
			c0.1-1.5,1-2.2,2.5-2.3c0.8,0,1.5-0.1,2.3-0.1c1.3,0,2.2,0.6,2.5,2c0.4,1.6,0.7,3.3,1.1,4.9c0.2,0.9,0.5,1.7,1.5,2.1
			c3.7,1.3,7.5,1.7,11.4,1c1.2-0.2,1.7-0.9,1.6-2.1c-0.2-2.3-1-4.3-1.9-6.4c-0.6-1.4-1.7-2.2-3.3-2.3c-6.8-0.5-13.5-0.6-20.3,0.3
			c-11.7,1.6-22.6,5.6-33,11c-1.7,0.9-2.4,2.2-2.6,4c-0.2,1.4-0.3,2.9-0.5,4.3c-0.3-1.7-0.5-3.4-0.2-5c0.4-2.2-0.6-3.4-2.3-4.4
			c-0.8-0.5-1.3-0.5-1.6,0.4c-0.4,1.2-0.8,2.3-1.1,3.5c-0.3,0.9-0.1,1.4,0.9,1.9c2.3,1.1,3.1,3,2.6,5.4c-0.2,0.9-1.4,1.8-0.6,2.5
			c0.7,0.6,1.9,0.2,2.9,0.2c5.5-0.1,9.7-2.7,12.9-7.1c0.8-1.1,0.9-2.1-0.1-3.1C61,68.7,60.6,68.1,59.9,67.2z M104.8,54
			c-0.9-0.6-1.8-0.9-2.7-1.1c-2-0.5-4.1-0.8-6.2-0.9c-12.3-0.7-24.4,0.6-35.9,5.2c-4.7,1.8-9.2,4-13.5,6.5C46.1,63.9,45,64,45.9,65
			c1.7,1.8,2.6,2,4.7,0.9c1-0.5,2-1,3-1.5c15.6-7.9,32.1-11.7,49.6-10.1C103.7,54.3,104.2,54.4,104.8,54z M74.1,64.6
			c0.2,1.4,0.3,2.4,0.4,3.3c0.1,1,0.6,1.4,1.7,1.1c0.9-0.3,1.8-0.6,2.8-0.8c3.1-0.8,6.3-1.4,9.5-2c0.3-0.1,0.7,0,0.8-0.4
			c0.1-0.3-0.2-0.4-0.4-0.6c-3.2-2.4-6.4-4.8-10.8-2.8c-0.8,0.4-1.6,0.5-2.5,0.7C74.5,63.4,74,64,74.1,64.6z M63.6,73.2
			c-0.2,0.1-0.3,0.1-0.3,0.2c-4,5.8-9.5,8.6-16.6,8.1c-0.5,0-1.4-0.4-1.6,0.3c-0.1,0.7,0.7,1.1,1.2,1.4c0.4,0.2,0.9,0.4,1.4,0.5
			c2.3,0.6,4.6,0.5,6.9-0.1c3.9-1,7.3-2.7,9-6.8C64.1,75.7,64.3,74.5,63.6,73.2z M67.5,62.2c-0.1,0.4-0.3,0.5-0.3,0.7
			c0.2,1.8-0.5,3-1.9,4.1c-1.6,1.2-2.4,2.8-1.2,5c1.2,2.1,0.8,4.3-0.3,6.4c-0.3,0.5-0.6,1-0.8,1.4c-0.1,0.2-0.3,0.5-0.1,0.7
			c0.2,0.2,0.5,0.1,0.7,0c0.8-0.3,1.3-1,1.7-1.7c1.4-2.3,2.3-4.8,4.1-6.9c0.3-0.3,0.3-0.7,0.2-1.2c-0.3-1.8-0.5-3.6-0.9-5.4
			C68.5,64.4,68.3,63.3,67.5,62.2z M73.7,68.2c-0.3-1.9-0.7-4-1.4-6.1c-0.5-1.4-3.1-1.8-4.1-0.7c-0.2,0.2-0.1,0.4,0,0.5
			c1.3,2.5,1.6,5.3,2,8c0.1,0.4,0.2,0.8,0.7,0.9C72.2,71.1,73.8,69.7,73.7,68.2z M91,56.8c-2.1,0-2.1,0-1.5,1.8
			c0.5,1.5,0.9,3,1.1,4.6c0.3,2.4,0.8,2.7,3.1,2.3c0.7-0.1,1-0.4,0.8-1.1c-0.4-2-0.7-4-1.3-5.9C92.9,57.3,92.2,56.5,91,56.8z
			 M88.1,57.3c-0.7,1.1-0.4,2.1-0.9,3c-0.6,1-1.9,0.4-2.9,1.2c1.9,1.2,3.7,2.4,5.9,3.9C89.8,62.3,89.5,59.8,88.1,57.3z M47.3,88.3
			c-0.1-1.7,0.4-3.5-1.9-4.2c-0.7-0.2-1.1-0.4-1,0.5c0.2,2.3,0.7,4.5,1.8,6.5c0.1,0.3,0.3,0.6,0.6,0.5c0.2-0.1,0.3-0.4,0.4-0.6
			C47.3,90.1,47.3,89.2,47.3,88.3z M57.1,97.8c-2.3-2.3-4.9-3.6-8.1-3.6C50.6,96.2,54.8,98.1,57.1,97.8z M89.7,120.3
			c1.1-0.2,2.4-0.2,3.6-0.6c0.4-0.2,1.2-0.4,0.9-1c-0.2-0.5-0.9-0.1-1.2,0c-2.8,1.5-5.4,1.2-7.7-1.1c-0.3-0.3-0.9-1.1-1.5-0.2
			c-0.5,0.8,0.2,1.2,0.8,1.5C86.2,119.8,87.8,120.2,89.7,120.3z M119.9,109.5c2.6,0.6,4.8,0.5,6.8-0.4c0.5-0.2,1-0.6,0.7-1.3
			c-0.2-0.6-0.8-0.5-1.3-0.4C124.2,108,122.1,108.5,119.9,109.5z M58.5,99.8c-0.1-0.3,0.2-0.7-0.2-1c-0.4-0.2-0.8,0.1-1.1,0.3
			c-1,0.6-0.9,1.7-1.2,2.7c-0.1,0.5-0.7,1.1,0.2,1.3c0.8,0.2,1.6,0.1,1.8-0.8C58.3,101.5,58.4,100.7,58.5,99.8z M103.7,68.5
			c1.2,0.8,2,1.3,2.8,1.9c0.5,0.3,1,0.2,1.4-0.2c0.6-0.6,1.2-1.1,1.3-2c0.1-0.4-0.4-0.4-0.7-0.3C107,68.1,105.6,68.3,103.7,68.5z
			 M61.3,100.6c0-0.2,0-0.3,0-0.5c-0.1-0.6,0.3-1.5-0.7-1.5c-0.9,0-1.2,0.8-1.1,1.7c0.1,0.7-0.1,1.3-0.2,1.9
			c-0.1,0.4-0.3,0.8,0.2,1.1c0.6,0.3,1,0,1.3-0.4C61.4,102.3,61.3,101.4,61.3,100.6z M53.6,102.7c0.6,0,1.1-0.3,1.2-0.9
			c0.2-0.7,0.4-1.3,0.6-2c0.1-0.3,0.3-0.6,0.1-0.8c-0.3-0.3-0.7-0.2-1-0.1c-1.1,0.3-1.4,1.4-1.8,2.2
			C52.1,102.2,52.4,102.7,53.6,102.7z"/>
		<path d="M112.5,78.4c1.3,2.1,2.5,4.3,2.8,6.8c0.5,5.4-2,9.7-7.2,12C99.7,101,91.7,99.6,84,95c-4.1-2.5-7.4-5.9-8.6-10.8
			c-1.2-4.9,0.6-9.4,4.9-12.1c3.3-2.1,7.1-2.8,10.9-2.8c5.2,0,10.1,1.1,14.7,3.7c1.7,0.9,3,2.2,4.6,3.2
			C111.2,76.9,111.8,77.7,112.5,78.4z M91.2,70.3c-0.1,1.3,0.6,1.7,1.6,1.8c1.3,0.2,2.6,0.1,3.9,0.4c1.7,0.4,3.3,0.5,4.9,1.6
			c2.5,1.7,5,3.3,6.6,5.9c0.5,0.8,1,1.2,1.9,0.5c0.5-0.4,1.2-0.5,1.5,0.3c0.5,1.3,0.6,2.7,0.4,4c-0.1,0.6-0.7,0.7-1.2,0.7
			c-0.7,0-1.1,0.2-1.3,0.9c-0.8,3-2.9,4.8-5.6,6c-6.4,2.7-15.4,0.1-20-5.7c-2.8-3.6-3-7.1-0.3-10.8c0.6-0.8-0.2-1.7,0.3-2.1
			c0.6-0.4,1.4,0.6,2.2,0c0.9-0.5,2-0.8,2.9-1.2c0.5-0.2,1.4,0,1.2-1c-0.2-0.8-0.7-1.5-1.7-1.3c-1.6,0.3-3.2,0.5-4.7,1.1
			c-0.6,0.2-1.2,0.3-0.6,1.2c0.5,0.8-0.1,1-0.8,0.7c-1.2-0.6-2.1-0.1-3,0.7c-4.1,3.7-4.5,10.1-0.9,14.6c6.2,7.7,14.4,10.4,24.1,9.3
			c2.3-0.3,4.4-1,6.4-2.3c0.5-0.3,1.2-0.6,0.5-1.4c-0.2-0.2-0.3-0.4,0-0.6c0.2-0.2,0.6-0.1,0.7,0.1c0.5,1,0.9,0.5,1.3,0
			c1.5-1.5,2.5-3.3,2.8-5.4c0.7-4.2-0.9-7.7-3.6-10.7c-4.6-4.9-10.6-6.7-17-7.4c-0.3,0-0.8-0.1-0.9,0.3
			C91.8,72.7,91.7,70.8,91.2,70.3z M100.9,74.8c0.1,0.5,0.4,0.9,0.3,1.1c-1,1.4,0.1,2,0.9,2.8c0.3,0.3,0.6,0.7,0.8,1.1
			c1.9,2.7,1.1,5.7-2,7c-2.7,1.1-5.3,0.9-7.9-0.4c-1.8-0.9-3.3-2.2-4.1-4.1c-0.7-1.7-0.4-3.3,0.7-4.9c-1.6-0.1-3.1-0.2-3.5-2.1
			c-0.1-0.5-0.6,0-0.8,0.2c-1.5,1.3-2.4,2.8-2.6,4.8c-0.2,2.7,0.9,4.9,2.7,6.8c3,3.2,6.9,4.8,11.2,5.2c3.2,0.3,6.3,0,9-1.9
			c1.1-0.8,2-1.6,2.4-3.1c-0.9,0-1.7,0.1-2.4,0c-1-0.2-1.8-0.9-1.6-2.1c0.3-1.1,1.3-1.1,2.2-1c0.9,0.1,1.4,0.8,2.3,1.3
			c0.2-0.9,0.1-1.4-0.8-1.4c-0.7,0-1.4,0-2.1,0c-0.5,0-1.2,0.1-1.3-0.7c0-0.7,0.5-1.1,1.1-1.2c0.3-0.1,0.7,0,1.1-0.1
			c1.4-0.1,1.5-0.4,0.8-1.6C105.8,77.9,103.6,76.3,100.9,74.8z M97.3,84.7c0,0,0.2,0,0.5,0c1.5,0,2.8-0.4,3.2-2
			c0.5-1.5-0.2-2.8-1.4-3.7c-1.8-1.4-3.8-1.9-6-1.5c-2.4,0.5-3.3,2.9-1.8,4.9C93.1,84.1,94.9,84.8,97.3,84.7z M101.5,79.7
			c-0.2,0.3,0.1,0.6,0.2,0.8c0.8,2.5-0.2,4.3-2.7,4.9c-2.4,0.6-4.6,0.1-6.6-1.4c-2.8-2.1-2.9-4.8-0.2-7c-2,0.6-2.9,1.8-2.7,3.7
			c0.1,1.4,0.8,2.6,1.9,3.5c2.7,2.2,5.8,2.9,9.1,1.7C103.4,85,103.9,81.8,101.5,79.7z"/>
		<path d="M105.3,101.8c0-1.6,0.4-2.1,1.8-2.1c1.6,0,2.3,0.7,2.3,2.4c0,1.5-0.6,2.2-1.9,2.2C106.1,104.3,105.3,103.4,105.3,101.8z"
			/>
		<path d="M100.9,101.7c1.5,0,2.1,0.5,2.1,1.9c0,1.6-0.8,2.5-2.2,2.5c-1.3,0-2.1-0.8-2-2.3C98.8,102.1,99.3,101.7,100.9,101.7z"/>
		<path d="M118.2,97.3c-0.1-1.1,0.3-1.9,1.7-1.9c1.6,0,2.3,0.6,2.3,2.1c0,1.6-0.5,2.2-2,2.2C118.6,99.8,118.1,99.2,118.2,97.3z"/>
		<path d="M92.3,105.6c0-1.6,0.4-2,2-2c1.6,0,2.1,0.5,2.1,2.3c0,1.3-0.8,2.1-2.1,2.1C93,107.9,92.3,107.1,92.3,105.6z"/>
	</g>
</g>
</svg>
