<?xml version="1.0" encoding="utf-8"?>
<!-- Generator: Adobe Illustrator 24.1.1, SVG Export Plug-In . SVG Version: 6.00 Build 0)  -->
<svg version="1.1" id="Layer_1" xmlns="http://www.w3.org/2000/svg" xmlns:xlink="http://www.w3.org/1999/xlink" x="0px" y="0px"
	 viewBox="0 0 170 170" style="enable-background:new 0 0 170 170;" xml:space="preserve">
<style type="text/css">
	.st0{fill:none;stroke:#A5A5A5;stroke-width:4;stroke-miterlimit:10;}
	.st1{fill:none;stroke:#000000;}
</style>
<g>
	<circle class="st0" cx="85.1" cy="86" r="80.5"/>
</g>
<g id="layer4">
	<g id="g2546" transform="translate(-22.929934,-0.7643312)">
		<path id="path2424" d="M119.3,142.9c-0.2-0.2-0.3-0.6-0.3-1.1c0-0.4-0.3-1.8-0.7-3.1c-0.7-2.3-0.8-2.4-2-2.1
			c-1,0.2-1.3,0.1-1.3-0.4c0-0.9-0.9-1.2-2.4-0.9c-2,0.4-1.4-0.3,1.2-1.4c2.6-1.1,3.8-2.2,3.3-2.9c-0.2-0.2-0.6-0.3-1.1-0.2
			c-0.7,0.2-0.7,0.2-0.1-0.2c0.4-0.3,0.9-0.5,1.3-0.5c1.9,0,10-6.9,13.6-11.6c1.2-1.5,4.8-8.8,5.5-11.1c0.3-0.9,0.7-4.2,1-7.3
			c0.5-5.5,0.7-7.5,1.8-14.6c1.3-8.2,1.3-9.5,0.4-11.6c-0.9-2-1.4-2.3-3.9-2.6c-1.8-0.2-4.8,2.1-6.1,4.7c-0.5,1-1.1,1.8-1.4,1.8
			s-0.4,0.2-0.2,0.4c0.1,0.2-0.2,1.5-0.7,2.8c-1.1,3.1-1.1,4.2,0,8.3c0.8,2.8,0.8,3.4,0.3,3.9c-0.8,0.8-2.1,0.3-2.1-0.8
			c0-0.5-0.2-0.9-0.4-0.9c-0.6,0-2.4,2.6-3.5,5c-0.5,1.1-1.4,3.2-2.1,4.5l-1.2,2.5l0-2c0-2.7-0.8-2.3-2.6,1.2
			c-1.4,2.8-2.5,4.3-2.5,3.5c0-0.4,1.5-4.8,2.5-7.1c0.2-0.5,0.1-0.8-0.1-0.8c-0.6,0-3.3,1.4-4.3,2.4c-0.5,0.4-1.1,0.7-1.3,0.5
			c-0.2-0.1-0.4,0-0.4,0.2c0,0.2-1,1.4-2.2,2.6c-1.2,1.2-2.6,2.8-3.1,3.5c-2.2,3.2-2.5,3.8-3.6,5.8c-0.6,1.2-1.4,2.3-1.6,2.4
			c-0.3,0.2-0.4,0.5-0.2,0.7c0.1,0.2,0,0.4-0.2,0.4c-0.3,0-0.5,0.3-0.5,0.7c0,0.4-0.2,0.7-0.5,0.7c-0.7,0-0.5-1,0.7-3.4
			c0.6-1.2,1.1-2.4,1.1-2.6c0-1-1.6,0.5-3.5,3.1c-1.1,1.6-2.1,2.9-2.2,2.9c-0.1,0,0-0.6,0.3-1.3c0.5-1.3,4-5.2,6.3-7.1
			c0.6-0.5,2-1.9,3-3.1c4.2-5.2,10.8-10.1,14.8-10.9c0.8-0.2,1.4-0.5,1.4-0.8c0-0.3,0.3-0.4,0.6-0.2c0.3,0.1,0.6,0,0.6-0.3
			c0-0.3,0.4-1.6,1-2.8c0.8-1.7,1.1-3.2,1.2-6.4c0.2-4.7-0.4-6.8-2.4-8.6c-1-1-1.6-1.1-4.9-1.1c-2.2,0-4.6,0.3-5.7,0.7
			c-2.4,0.8-2.1,0.9-2.4-0.2c-0.2-0.7-0.6-0.9-2.2-0.9c-2.4,0-4.9,1.3-7.7,3.9c-3.6,3.4-5.7,3.8-2.5,0.4c0.9-0.9,1.6-1.9,1.6-2.1
			c0-1.2-4.8,0.1-7.1,2c-0.3,0.2-0.8,0.3-1.1,0.1c-0.3-0.2-0.4-0.2-0.3,0c0.3,0.3-4.3,3.4-5.2,3.4c-0.7,0-0.4-0.8,0.5-1.5
			c0.8-0.5,0.8-0.7,0.2-0.9c-0.4-0.1-0.8-0.1-1,0.2c-0.3,0.6-1.1,0.6-1.1,0c0-0.2,0.9-0.8,2.1-1.2c1.1-0.4,2.6-1.2,3.2-1.7l1.1-0.9
			V62c0-8.9-0.2-15.2-0.5-15.9c-0.4-1.1-0.6-1.2-1.9-0.9c-0.8,0.2-1.8,0.6-2.2,1c-1.6,1.5-3.4,7.2-4.3,13.8
			c-0.6,4.6-0.8,22.1-0.3,22.5c0.8,0.5,0.6,1.6-0.6,3.1c-1.3,1.7-1.9,4.3-2.6,10.7c-1.2,11.9,2.6,27.2,8.1,32.6c2,2,2.4,2.7,1.2,2.3
			c-1.1-0.4-1.6,0.1-1.1,1.2c0.3,0.7,0.2,1.3-0.2,1.8c-0.3,0.5-0.7,1.7-0.9,2.7c-0.6,3.7-0.8,4.4-1.4,4.4c-1,0-1.3-1.4-1.5-7.5
			c-0.2-5.5-0.3-6.2-2-10.8c-2.2-6-3.1-10-3.8-16.7c-0.6-5.8-0.2-13.3,0.8-17.3c0.4-1.4,0.8-3.1,0.9-3.8c0.2-0.7,0.5-1.2,0.7-1
			c0.2,0.1,0.3-1.7,0.2-4.4c-0.4-8.6,1.9-28.1,3.7-32.1c0.9-2,3.4-4,5.8-4.7c1.6-0.4,2.2-0.9,2.5-1.8c0.2-0.7,1.2-2,2-3
			c1.6-1.8,1.7-1.8,4.9-1.9c3.2-0.1,3.3-0.1,4.1-1.6c1.4-2.7,4.1-4.5,6.8-4.5c1.2,0,1.9,0.2,2.3,0.8c0.3,0.4,0.5,0.6,0.5,0.3
			c0-0.8,2.3,2.2,2.3,3c0,1.2,0.7,1.4,2.2,0.7c1.8-0.9,2.9-0.9,4.3,0.2c2.2,1.7,3.3,5.1,4,12.3c0.3,2.9,0.7,7.1,0.9,9.3
			c0.2,2.3,0.6,8.1,0.9,13c0.7,11.8,0.7,11.9,2.3,8.3c0.7-1.6,1.7-3.3,2.2-3.8c0.5-0.6,0.9-1.2,0.9-1.4c0-0.2,1-1,2.1-1.7
			c1.8-1.2,2.6-1.4,5.2-1.4c2.9,0,3.1,0.1,4.2,1.4c1.3,1.5,1.4,2.7,0.7,6.4c-1.1,5.5-1.7,9.9-2,13.1c-0.7,8.8-1.3,13.7-2.1,16.8
			c-1,3.9-3.7,9.5-5.5,11.4c-0.7,0.7-1.1,1.3-1,1.3c0.1,0-0.4,0.7-1.2,1.5c-0.8,0.8-1.8,2-2.2,2.7c-0.4,0.7-1,1.3-1.3,1.3
			c-0.3,0-0.6,0.3-0.6,0.7c0,0.4-0.7,1.5-1.6,2.5c-1.8,2-2.5,3.8-2.5,7C121.7,139.9,120.3,143.9,119.3,142.9z M93.1,75.5
			c0.9-1,1.6-1.4,2.7-1.4c0.8,0,1.8-0.2,2.1-0.4c1.1-0.7,1.6-5.1,1.3-10.3c-0.2-2.8-0.3-7.7-0.2-11c0.2-8.5-0.2-12.1-1.6-13.5
			c-1.4-1.5-3.8-1.6-5.3-0.1c-2.2,2.1-2.4,3.9-2.4,20.8c0,8.6,0.2,16,0.3,16.5C90.4,77.2,91.8,77,93.1,75.5z M93.6,66
			c0.1-0.4,0.6-0.8,1.1-0.9s0.6,0,0.3,0.1c-0.9,0.4-0.7,1.1,0.2,0.8c0.5-0.2,0.6-0.1,0.4,0.2C95,67.2,93.4,67,93.6,66z M93.3,52.8
			c0.3-0.3,1-0.6,1.6-0.8c0.8-0.2,1-0.2,0.7,0.1c-0.3,0.3-1,0.6-1.6,0.8C93.2,53.2,93,53.1,93.3,52.8z M93.7,51.1
			c0.5-0.4,1.2-0.7,1.6-0.7c0.5,0,0.3,0.2-0.4,0.7C93.4,52,92.6,52,93.7,51.1z M109,72.9c0.4-0.3,0.8-0.5,0.9-0.4
			c0.7,0.7,1-8.2,0.4-11.8c-0.4-2.8-0.5-6.2-0.1-14.6c0.5-11.4,0.4-11.9-1.4-13.6c-1.2-1-4.8-0.8-5.9,0.3c-0.4,0.4-1,0.8-1.3,0.8
			c-0.3,0-0.4,0.1-0.2,0.3c0.2,0.2,0,0.8-0.4,1.4c-1,1.5-1.3,12.9-0.9,25.7l0.3,9.5l1.3,0.3c1.5,0.3,1.6,0.7,0.6,1.5
			c-0.4,0.3-0.7,0.9-0.7,1.2c0,0.6,0.5,0.6,3.3,0.4C106.8,73.7,108.6,73.3,109,72.9z M104.4,63.2c0-0.2,0.6-0.5,1.2-0.6
			c1.2-0.2,1.2-0.2,0.4,0.4C105,63.7,104.4,63.8,104.4,63.2z M104.6,61.8c0.2-0.3,0.6-0.5,1-0.4c0.7,0,0.7,0.1,0.1,0.4
			C104.9,62.4,104.3,62.4,104.6,61.8z M104.9,50.5c0.4-0.2,1.1-0.4,1.6-0.4c0.8,0,0.8,0.1,0.2,0.4c-0.4,0.2-1.1,0.4-1.6,0.4
			C104.3,50.9,104.3,50.8,104.9,50.5z M104.4,48.9c0.3-0.3,1.1-0.7,1.8-0.9l1.2-0.2l-1.1,0.9C105,49.7,103.5,49.9,104.4,48.9z
			 M120.8,72.7l1.1-0.2l0.1-6.4c0.1-3.5-0.1-7.9-0.3-9.8c-0.3-1.9-0.7-6.1-0.9-9.4c-0.5-6.1-0.9-7.8-2.5-9.6
			c-1.9-2.1-5.7-0.9-6.5,2.1c-0.2,0.7-0.3,5.3-0.3,10.3c0,5,0.1,11.7,0.1,15c0.1,6.1,0.4,7.3,1.9,6.8c0.6-0.2,0.8-0.1,0.6,0.7
			c-0.2,0.7,0,1,0.8,1.1c2.3,0.5,3.8,0.5,4.3,0C119.5,73.1,120.2,72.8,120.8,72.7z M115.1,61.8c0.2-0.3,0.8-0.5,1.4-0.5
			c0.6,0,1,0.2,0.9,0.5c-0.2,0.3-0.8,0.5-1.4,0.5C115.3,62.3,114.9,62.1,115.1,61.8z M115.5,60.5c0.2-0.3,0.6-0.5,0.9-0.5
			c0.4,0,0.7,0.2,0.7,0.5c0,0.3-0.4,0.5-0.9,0.5S115.4,60.7,115.5,60.5z M114.9,50c0-0.6,1.8-1.5,2.2-1.2c0.2,0.2-0.1,0.6-0.6,0.9
			C115.5,50.6,114.9,50.6,114.9,50z M114.9,48c0.3-0.4,1-0.7,1.5-0.7c0.9,0,0.9,0.1-0.2,0.7C114.7,48.8,114.2,48.8,114.9,48z
			 M87.6,139.4c-0.3-0.3-0.4-1.1-0.2-1.6c0.2-0.5,0-1.3-0.4-1.9c-0.8-1.2-0.9-2.6-0.2-2.6c0.3,0,1.4,0.3,2.5,0.8
			c1.7,0.6,2.3,0.7,4.3,0.2c1.3-0.3,3-0.5,4-0.5l1.7,0l-1.1,0.6c-0.6,0.4-1.7,0.7-2.4,0.7c-1.1,0-1.2,0.2-1,0.9
			c0.3,0.9,0.1,1-2.8,1.6c-0.8,0.2-1.7,0.7-1.9,1.1C89.3,139.8,88.2,140.1,87.6,139.4z M90.9,132.3c-1-0.4-1.7-1.5-1.2-2
			c0.2-0.1,0.7-0.3,1.3-0.3c0.6,0,2.3-0.6,3.9-1.4c4.5-2.2,7.2-1.7,4.5,0.9c-1.7,1.6-5.1,3.2-6.5,3.2
			C92.4,132.7,91.5,132.5,90.9,132.3z M107,131.1c-1.4-0.9-2.5-1.7-2.5-1.8c0-0.1,0.2-0.1,0.4,0c0.2,0.1,0.6,0,0.7-0.2
			c0.3-0.5,5.1-0.3,7.1,0.3c1.1,0.3,1,1.4-0.3,2.2C110.6,132.9,109.6,132.8,107,131.1z M96.5,119.5c0.2-0.4,0.4-0.7,0.6-0.6
			c0.1,0.1,0,0.5-0.3,0.8C96.3,120.2,96.2,120.1,96.5,119.5z M84.4,115.9c0-0.6,6.5-7.1,8.9-8.9c0.9-0.7,1.8-1.1,2.1-0.9
			c0.3,0.2,0.4,0.1,0.4-0.2c-0.1-0.5,3.4-3.4,9.7-7.8c1.1-0.8,2.1-1.6,2.3-1.7c0.6-0.7,6.4-4.2,6.6-4c0.3,0.3-1.4,2-3.8,3.6
			c-1.2,0.8-2.6,1.9-3.2,2.4c-0.6,0.5-1,0.7-1,0.5c0-0.2-0.2-0.2-0.3,0c-0.8,1.1-4.2,3.4-4.7,3.2c-0.3-0.2-0.4-0.1-0.3,0.1
			c0.1,0.2-1.1,1.4-2.6,2.5c-1.5,1.1-3,2.3-3.3,2.6c-0.3,0.3-0.8,0.4-1,0.2c-0.3-0.2-0.4-0.1-0.3,0.1c0.1,0.4-7.3,7.6-8.6,8.4
			C84.6,116.3,84.4,116.2,84.4,115.9z M77.4,101c-0.4-0.7,2.4-2.4,3.7-2.3c1.2,0.1,1.2,0.2-0.9,1.4C78,101.5,77.7,101.6,77.4,101z
			 M86.9,96.8c0.8-1.4,12.3-7.7,12.9-7.1c0.1,0.1,0.5,0,0.7-0.4c0.5-0.6,2.8-1.5,9.6-4c2.2-0.8,3.3-1,2.7-0.6
			c-0.9,0.7-13.6,7-14.1,7c-0.6,0-8.2,3.4-8.9,4c-0.4,0.4-1,0.5-1.3,0.3C88.3,96,88,96.1,88,96.3c0,0.2-0.3,0.6-0.7,0.7
			C86.9,97.2,86.7,97.1,86.9,96.8z M136.9,79.5c-0.2-0.5-0.2-1.1-0.1-1.2c0.4-0.4,1.2,0.3,1.2,1C138.1,80.4,137.2,80.5,136.9,79.5z
			 M82.8,69.1c0.2-0.3,0.6-0.5,1-0.4c0.7,0,0.7,0.1,0.1,0.4C83,69.7,82.4,69.7,82.8,69.1z M82.6,67.7c0.9-0.6,1.9-0.6,1.6,0
			c-0.2,0.3-0.7,0.5-1.3,0.4C82.1,68.2,82,68.1,82.6,67.7z M83.9,59.6c0.6-0.5,1.4-0.9,1.7-0.9c1,0,0.2,0.8-1.4,1.3l-1.5,0.5
			L83.9,59.6z M82.6,58.9c0-0.3,2.5-1.7,2.9-1.7c0.6,0,0.2,0.8-0.5,1c-0.4,0.1-1.2,0.4-1.6,0.6C82.9,59,82.6,59.1,82.6,58.9z"/>
	</g>
	<path id="path2400" class="st1" d="M81,32.8C80.8,32.8,80.8,32.8,81,32.8z"/>
	<path id="path3176" class="st1" d="M80.8,32.9C80.2,33.1,80.3,33.8,80.8,32.9z"/>
</g>
</svg>
