<?xml version="1.0" encoding="utf-8"?>
<!-- Generator: Adobe Illustrator 24.1.1, SVG Export Plug-In . SVG Version: 6.00 Build 0)  -->
<svg version="1.1" id="Layer_1" xmlns="http://www.w3.org/2000/svg" xmlns:xlink="http://www.w3.org/1999/xlink" x="0px" y="0px"
	 viewBox="0 0 170 170" style="enable-background:new 0 0 170 170;" xml:space="preserve">
<style type="text/css">
	.st0{fill:none;stroke:#A5A5A5;stroke-width:4;stroke-miterlimit:10;}
</style>
<g>
	<circle class="st0" cx="85.1" cy="86" r="80.5"/>
</g>
<g>
	<path d="M66.4,86c0-11,0-22,0-33c0-0.5,0-1,0-1.5c0.1-0.9,0.4-1.5,1.3-1.7c0.9-0.2,1.6,0.2,1.8,1.1c0.2,0.7,0.5,0.9,1.2,0.7
		c4.1-1.2,8.3-0.7,12.4,0.1c3.7,0.8,7.3,1.7,11.1,2c2.8,0.2,5.4,0,8-1.2c1.1-0.5,1.4-0.2,1.4,1c0,6.2,0,12.4,0,18.6
		c0,1.1-0.4,1.6-1.3,1.9c-4.3,1.6-8.7,1.4-13.1,0.5c-3.8-0.8-7.5-1.8-11.3-2.1c-2.4-0.2-4.6,0-6.9,0.7c-1,0.3-1.3,0.8-1.3,1.8
		c0,2.9,0,5.8,0,8.8c0,11.7,0,23.5,0,35.2c0,2.6-0.4,3.5-1.6,3.5c-1.3,0-1.7-0.8-1.7-3.5C66.4,107.8,66.4,96.9,66.4,86z M69.8,62.6
		c0,2.6,0,5.3,0,7.9c0,1,0.3,1.2,1.2,0.9c2.4-0.7,4.8-0.8,7.4-0.6c3.7,0.4,7.3,1.3,10.9,2c3.8,0.8,7.6,1.2,11.4,0.1
		c0.9-0.3,1.5-0.7,1.5-1.8c0-5.2,0-10.3,0-15.5c0-1.1-0.4-1.2-1.3-0.9c-2,0.6-4,0.7-6,0.6c-3.9-0.2-7.7-1.2-11.5-2
		c-4-0.8-7.9-1.4-12-0.3c-1.1,0.3-1.6,0.8-1.6,2C69.9,57.6,69.8,60.1,69.8,62.6z M68.1,120.2C68.1,120.2,68.1,120.2,68.1,120.2
		c0.1-22.8,0.1-45.6,0.1-68.3c0,0,0,0-0.1,0C68.1,74.6,68.1,97.4,68.1,120.2z"/>
</g>
</svg>
