<?xml version="1.0" encoding="utf-8"?>
<!-- Generator: Adobe Illustrator 24.1.1, SVG Export Plug-In . SVG Version: 6.00 Build 0)  -->
<svg version="1.1" id="Layer_1" xmlns="http://www.w3.org/2000/svg" xmlns:xlink="http://www.w3.org/1999/xlink" x="0px" y="0px"
	 viewBox="0 0 170 170" style="enable-background:new 0 0 170 170;" xml:space="preserve">
<style type="text/css">
	.st0{fill:none;stroke:#A5A5A5;stroke-width:4;stroke-miterlimit:10;}
</style>
<g>
	<circle class="st0" cx="85.1" cy="86" r="80.5"/>
</g>
<path d="M151.7,101.5c-0.2-0.4-0.3-0.8-0.5-1.1c-2.4-4.7-4.9-9.4-7.3-14c-0.2-0.4-0.2-0.6,0-1c2.2-4.4,4.3-8.8,6.4-13.2
	c0.2-0.5,0.5-1,0.6-1.5c0.2-0.6,0-0.7-0.5-0.7c-10.1,0-20.2,0-30.3,0c-0.5,0-0.6,0.2-0.6,0.6c0,3,0,6-0.1,9
	c-0.1,1.5,0.1,1.3-1.3,1.3c-4.3,0.1-8.6,0.1-12.8,0.1c-18.4,0.1-36.8,0.1-55.1,0c-3.4,0-6.8-0.1-10.1-0.1c-0.5,0-0.7-0.2-0.7-0.7
	c0-1.3-0.1-2.6-0.1-3.9c0-1.9,0-3.8,0-5.7c0-0.5-0.2-0.6-0.6-0.6c-0.7,0-1.2,0.5-1.6,0.9c-6,4.9-12,9.8-18,14.7
	c-0.8,0.7-0.8,0.7,0,1.4c6.3,4.9,12.7,9.7,19,14.6c0.3,0.2,0.6,0.6,1,0.4c0.4-0.2,0.3-0.7,0.3-1c0.1-2.5,0.1-5,0.1-7.5
	c0-0.5,0.2-0.7,0.7-0.7c1.1,0,2.3-0.1,3.4-0.1c11.9,0,23.8,0,35.7,0c0,0,0,0,0,0c7.1,0,14.2,0,21.3,0c5.9,0,11.9-0.1,17.8,0.1
	c0.6,0,0.7,0.2,0.8,0.8c0.2,2.7,0.1,5.4,0.1,8.2c0,0.5,0.1,0.7,0.6,0.7c8.6,0,17.1,0.1,25.7,0c1.9,0,3.8-0.1,5.8-0.1
	C151.9,102.1,151.9,101.9,151.7,101.5z M24.7,84.2c1.4-1.3,2.8-2.5,4.3-3.7c2.1-1.8,4.2-3.5,6.3-5.2c0.3-0.3,0.7-0.7,1.1-0.6
	c0.4,0.2,0.2,0.8,0.2,1.2c0.1,2,0.1,4,0.2,6c0,0.9,0.1,1,1,1C44.3,83,50.7,83,57.1,83c13.3,0,26.5,0,39.8,0c6.2,0,12.4,0.1,18.6,0.1
	c0.9,0,1.8,0.1,2.7,0.1c0.5,0,0.7,0.3,0.7,0.7c0,0.5-0.2,0.8-0.7,0.9c-2.4,0.2-4.8,0.1-7.1,0.1c-13.2,0-26.5,0-39.7,0c0,0,0,0,0,0.1
	c-15.4,0-30.9,0-46.3,0c-0.2,0-0.6,0.1-0.7-0.1C24.2,84.6,24.5,84.4,24.7,84.2z M118.8,89c-0.2,0.4-0.5,0.3-0.8,0.3
	c-1.5,0-2.9,0.1-4.4,0.1c-13.5,0-27,0-40.4,0c-10.1,0-20.1,0-30.2,0c-1.6,0-3.1,0-4.7,0.1c-1.4,0-1.5,0.2-1.5,1.5
	c0,1.8-0.1,3.6-0.1,5.4c0,0.1,0,0.2,0,0.3c0,0.2,0,0.6-0.2,0.7c-0.2,0.1-0.4-0.2-0.6-0.3c-2.6-1.9-5-4-7.4-6c-1.2-1-2.4-1.9-3.5-3
	c-0.3-0.2-0.7-0.5-0.6-0.9c0.1-0.4,0.6-0.2,1-0.2c15.3,0,30.6,0,46,0c0,0,0,0,0,0c12.8,0,25.7,0,38.5,0c2.5,0,4.9,0.1,7.4,0.1
	c0.2,0,0.4,0,0.6,0C118.8,87.3,119.2,88.1,118.8,89z M146.3,72.2c0.2-0.1,0.4-0.1,0.6,0c0.2,0.1,0.1,0.3,0,0.5
	c-0.3,0.6-0.5,1.2-0.8,1.8c-1.4,2.8-2.7,5.6-4.1,8.5c-0.3,0.6-0.6,1.3-1.1,1.8c-0.2,0.2-0.4,0.3-0.6,0.2c-0.2-0.1-0.2-0.2-0.2-0.5
	c0.1-0.2,0.1-0.4,0.2-0.7c1.8-3.7,3.5-7.4,5.5-11C145.9,72.5,146.1,72.3,146.3,72.2z M141.9,72.1c0.6,0,0.7,0.1,0.5,0.6
	c-1.8,3.9-3.6,7.7-5.7,11.4c-0.1,0.3-0.3,0.5-0.6,0.7c-0.2,0.2-0.4,0.3-0.7,0.1c-0.2-0.2-0.3-0.4-0.1-0.7c0.6-1.2,1.1-2.4,1.7-3.6
	c1.3-2.7,2.6-5.3,4-8C141.3,72.3,141.6,72.1,141.9,72.1z M136.8,72.3c0.2-0.3,0.5-0.2,0.7-0.1c0.3,0.1,0.2,0.3,0.1,0.5
	c-0.6,1.4-1.2,2.7-1.9,4.1c-1.2,2.5-2.3,5-3.6,7.4c-0.2,0.3-0.3,0.7-0.8,0.7c-0.4,0-0.6-0.2-0.5-0.7c0.3-0.9,0.7-1.7,1.1-2.5
	c1.5-3,3-5.9,4.4-8.9C136.6,72.7,136.7,72.5,136.8,72.3z M132.6,72.1c0.4,0.1,0.4,0.3,0.4,0.6c0,0.1-0.1,0.3-0.2,0.4
	c-1.7,3.7-3.4,7.3-5.2,10.9c-0.1,0.2-0.2,0.3-0.3,0.5c-0.2,0.3-0.4,0.4-0.7,0.4c-0.4,0-0.5-0.2-0.4-0.6c0.4-1.1,0.8-2.3,1.3-3.4
	c1.3-2.7,2.3-5.6,3.7-8.3C131.6,72.1,132,72,132.6,72.1z M121.3,73c0-0.7,0.3-0.9,1-0.9c0.7,0,0.8,0.2,0.6,0.8
	c-0.2,0.8-0.5,1.6-0.9,2.3c-0.1,0.2-0.2,0.4-0.4,0.4c-0.3,0-0.2-0.3-0.2-0.5C121.2,74.4,121.2,73.7,121.3,73z M121.4,84.1
	c0.5-1.2,1-2.4,1.5-3.6c1.1-2.6,2.3-5.2,3.6-7.7c0.2-0.4,0.4-0.7,0.7-0.7c0.7,0,0.9,0.2,0.7,0.7c-0.1,0.3-0.2,0.6-0.4,1
	c-1.5,3.4-3,6.8-4.6,10.1c-0.1,0.3-0.3,0.5-0.4,0.7c-0.2,0.3-0.6,0.5-0.9,0.3C121.1,84.7,121.2,84.4,121.4,84.1z M122.6,100.1
	c-0.5,0.1-1-0.2-1.2-0.6c-0.1-0.4-0.1-0.8-0.1-1.3c0-0.2,0.1-0.6,0.1-1c0-0.1,0-0.3,0.2-0.3c0.1,0,0.2,0.1,0.3,0.2
	c0.5,0.7,0.9,1.4,1.2,2.2C123.2,99.8,123,100,122.6,100.1z M127.9,100.2c-0.4,0-0.7-0.3-1-0.7c-0.6-1.1-1.1-2.2-1.7-3.3
	c-1.1-2.4-2.3-4.8-3.4-7.3c-0.1-0.2-0.2-0.5-0.3-0.7c-0.1-0.3-0.2-0.6,0.1-0.8c0.3-0.2,0.6-0.2,1,0c0.3,0.1,0.4,0.4,0.5,0.7
	c2,3.7,3.8,7.5,5.6,11.4C128.9,99.9,128.8,100.1,127.9,100.2z M132.7,100.1c-0.3-0.1-0.5-0.4-0.7-0.7c-0.5-0.9-1-1.9-1.5-2.8
	c-1.2-2.5-2.5-5-3.7-7.5c-0.2-0.4-0.4-0.9-0.6-1.4c-0.1-0.2-0.1-0.4,0.1-0.5c0.2-0.2,0.4-0.1,0.6,0c0.2,0.1,0.3,0.3,0.4,0.5
	c2,3.7,3.9,7.5,5.7,11.3c0.1,0.2,0.2,0.5,0.2,0.6C133.3,100.1,133.2,100.3,132.7,100.1z M137.5,100.2c-0.2,0.1-0.3-0.1-0.4-0.2
	c-0.5-0.4-0.8-0.9-1.1-1.5c-1.7-3.4-3.4-6.9-4.9-10.4c-0.1-0.1-0.1-0.2-0.1-0.4c-0.1-0.2,0-0.4,0.1-0.5c0.2-0.1,0.4-0.1,0.5,0
	c0.2,0.1,0.3,0.3,0.4,0.5c2,3.7,3.8,7.5,5.6,11.3c0.1,0.2,0.1,0.4,0.2,0.6C137.8,99.9,137.7,100.1,137.5,100.2z M142.8,100
	c-0.3,0.2-0.7,0.2-1.1-0.1c-0.3-0.2-0.5-0.5-0.6-0.8c-2-3.7-3.9-7.3-5.9-11c-0.4-0.7-0.1-1,0.9-1c0.4,0,0.8,0.2,1.1,0.7
	c2,3.7,3.9,7.5,5.6,11.3C142.9,99.4,143.2,99.8,142.8,100z M146.9,100c-0.3-0.2-0.5-0.6-0.7-0.9c-1.2-2.3-2.2-4.6-3.3-6.9
	c-0.6-1.3-1.2-2.6-1.8-3.9c-0.1-0.2-0.2-0.5-0.3-0.8c-0.1-0.2,0.1-0.4,0.2-0.5c0.2-0.1,0.3,0,0.4,0.2c0.1,0.2,0.2,0.4,0.4,0.6
	c1.9,3.6,3.7,7.3,5.4,11c0.1,0.2,0.2,0.5,0.3,0.7C147.6,100.1,147.2,100.3,146.9,100z"/>
</svg>
