<?xml version="1.0" encoding="utf-8"?>
<!-- Generator: Adobe Illustrator 24.1.1, SVG Export Plug-In . SVG Version: 6.00 Build 0)  -->
<svg version="1.1" id="Layer_1" xmlns="http://www.w3.org/2000/svg" xmlns:xlink="http://www.w3.org/1999/xlink" x="0px" y="0px"
	 viewBox="0 0 170 170" style="enable-background:new 0 0 170 170;" xml:space="preserve">
<style type="text/css">
	.st0{fill:none;stroke:#A5A5A5;stroke-width:4;stroke-miterlimit:10;}
</style>
<g>
	<circle class="st0" cx="85.1" cy="86" r="80.5"/>
	<g>
		<path d="M36.9,95.6c-1.4,2.9-0.9,5.9-1.1,8.9c-0.2,3.4-1.8,4.1-5.2,2.1c1.6-1.1,3.6-1.7,3.2-4.3c-0.3-1.9-0.4-3.2-2.7-3.2
			c-0.7,0-1.7,0-1.6-1.1c0.1-0.8,0.9-0.9,1.6-0.9c1.7,0,2.4-0.7,2.9-2.4c0.8-2.6,2.9-2,4.4-0.8c2.1,1.6,2.5,0.4,2.5-1.3
			c0.1-4.9,0-9.9,0-14.8c0-0.6,0.1-1.5-0.7-1.6c-4.9-0.6-4.2-5-5-8c-0.9-3.4,1.5-6,3.9-8.2c1-0.9,1.9-1.7,2.5-2.9
			c1.8-3.7,5.8-3.9,8.3-0.5c0.6,0.8,0.8,1.8,1.7,2.3c1,0.5,1.9,1,2.2-0.5c0.6-3,3.4-5.2,3.1-8.5c-0.1-0.6,0.2-1.4,0.9-1.6
			c0.9-0.2,1.4,0.6,1.7,1.3c1,2.2,2.4,4.1,5.1,6c-1-3.5-0.2-6.3,0.3-9.1c0.2-1.5,0.5-3.6,2.6-3.6c1.9-0.1,1.7,1.9,2.4,3.1
			c1.2,2,0.2,4.3,0.7,6.8c3-1.9,5.8-3.6,8.5-5.5c1.8-1.2,3.7-1.6,5.9-1.3c5.2,0.7,10.4,1.4,15.6,1.9c2.9,0.3,4.6,2.4,6.6,4
			c8.4,7.2,16.6,14.6,24.9,21.9c1.6,1.4,2.1,2.7,2,5c-0.4,6.9-0.8,13.9,0.2,20.6c0.5,3.4,1.8,6.8,1.7,10.4c0,0.5,0,1.1-0.1,1.6
			c-0.1,1.7-1.3,2.1-2.7,2.4c-0.8,0.1-1.7,0.3-2.1-0.5c-0.7-1.8,1.8-1.2,2-2.7c-2.5-1-5.1-0.5-7.6-0.3c-11.6,0.9-23.1,2.1-34.7,1.6
			c-14.3-0.6-28.7-0.2-43-0.4c-1.3,0-2.5-0.3-3.8-0.8c-1.7-0.8-3.6-0.9-5.4,0c-2.5,1.3-5,0.8-7.8,0.4c0.9-1.9,2.4-1.2,3.5-1.3
			c1.6-0.1,2.5-0.7,2.5-2.4C36.9,103.3,36.9,99.5,36.9,95.6z M46.1,70.9c0.1,0.2,0.1,0.4,0.2,0.6c15.3,0,30.5,0,45.8,0
			c2,0,1.7-1,1-2.3c-3.3-5.9-6.7-11.8-9.8-17.8c-1.3-2.5-2.6-2.9-4.8-1.4c-6.5,4.2-13,8.5-19.5,12.7C54.7,65.4,50.4,68.1,46.1,70.9z
			 M47,96c0,3.6,0,7.2,0,10.7c0,1.9,0.8,2.7,2.8,2.7c15.9,0,31.7,0,47.6,0c2.6,0,2.8-1.4,2.8-3.4c0-2.1-0.1-3.7-2.9-3.6
			c-2.5,0.1-5-0.1-7.5,0c-3.3,0.2-5.7-0.3-5.3-4.4c0.1-1.1-0.4-1.9-1.7-2c-0.9-0.1-2,0.1-2,1.2c-0.2,3.6-2.7,3.3-5.2,3.2
			c-1.9-0.1-3.7-0.1-5.6,0c-2.9,0.2-5.5,0-5.9-4.1c0.2,3.2-1.7,3.3-3.7,3.3c-2.8,0-5.7-0.1-8.5,0C49,100,46.9,99.5,47,96z
			 M91.8,51.2c-0.5,1.1,1.4,1.7,0.2,2.9c-1.5-0.5-2.4-2.6-4.2-2c-0.4,2.7,2.9,3.3,3.1,5.5c0.4,3.3,1.5,5.6,5,6
			c0.2,1.4-1.8,0.5-1.5,1.9c0.5,2.8,3.5,5.8,6.7,6.1c5.4,0.6,10.9,1.3,16.3,1.7c3.4,0.2,6.8,1.3,10.6,0.4c-0.6-0.7-0.8-1.1-1.2-1.5
			c-6.2-5.4-12.5-10.7-18.5-16.3c-3.6-3.4-7.8-4.3-12.4-4.1C94.5,51.8,93.1,51.9,91.8,51.2z M85.9,88.3c-0.3-0.1-0.5-0.2-0.8-0.3
			c0-1.8-1.4-4.3,2.6-4c1.2,0.1,1.2-0.8,1-1.5c-0.3-1.3-0.3-2.5,0.7-3.7c0.5-0.7,0.5-1.7-0.1-2.5c-0.5-0.6-1.2-0.6-1.8-0.2
			c-0.9,0.6-0.9,1.4-0.6,2.3c0.6,1.8,0,3.3-1.5,5.8c-0.2-3.2-3-3.6-3.6-5.7c1.2-0.8,2.1,1.5,3.1,0c0.4-0.6,0.3-1.6-0.3-2.1
			c-0.8-0.7-2.4-1.7-2.8-1.1c-1.1,1.8-2.8,0.7-4.3,1.4c0.6,0.8,0.6,2.1,1.7,2.6c1.8,0.7,2,1,0.1,2.1c-1.4,0.8-2.9,2.7,0.5,3.5
			c0.6,0.2,2,0.4,1.7,2c-0.6-0.1-1.1-0.2-1.6-0.2c-1.1,0-2.5-0.1-2.7,1.2c-0.2,1.4,1.2,1.3,2.1,1.5c0.6,0.2,1.4,0.2,1.2,1.5
			c-3.3,1.1-6.7,0.7-10.2,0.2c-2.8-0.4-3.9,0.9-3.1,3.3c0.8,2.4,3.2,3.2,5.1,3.7c1.9,0.5,4.7,0.2,5.6-1.7c1.8-3.7,4.7-2.4,7.4-2.2
			c1.8,0.1,3.3,1.5,2.9,3.3c-1,4,2,2.5,3.5,2.8c2.2,0.4,3.6-0.1,3.5-3c-0.2-6.8-0.1-13.6-0.1-20.4c0-0.9,0.4-2.2-1.1-2.3
			c-1.6-0.2-1.6,1.2-1.6,2.3c0,3.6,0,7.2-0.1,10.8c0,1.4,0.6,3.7-1.5,3.8c-2.5,0.1-0.3-2.3-1-3.4c-0.4-0.6,0.1-1.9-1-2.2
			c-1.1-0.4-1.8,0.4-2.3,1.4C86.4,87.6,86.1,87.9,85.9,88.3z M122.9,99.7c0.3-1,0.6-2,1-3c0.2-0.5,0.6-1,1.2-0.9
			c0.9,0.1,1,0.8,0.9,1.5c-0.6,3.5,2.5,2.7,4,2.8c2.1,0.2,1-2,1.1-3c0.2-4.8,0.1-4.9-4.7-4.9c-0.4,0-0.9,0-1.3,0
			c-2.3,0.1-3.7-0.6-3.5-3.4c0.2-2.5,0-5-0.1-7.5c-0.1-1.1,0.5-2.5-1.2-4c0,3.6,0,6.5,0,9.5c0,4.9,0,4.9-5,4.8
			c-2.5-0.1-5-0.4-7.5-0.5c-2.2-0.1-3-1.1-3-3.3c0-3.3-0.3-6.5-0.4-9.8c-0.1-2.7-2-2.7-3.9-2.8c-2.2-0.1-2.5,1.1-2.5,2.9
			c0,6.5,0,12.9,0,19.4c0,1.9,0.5,2.9,2.7,3.2c2.3,0.3,2.7-1,3-2.5c0.4-1.8,1.8-2.9,2.4-4.5c0.4-1,1.7-1.4,2-0.3
			c0.5,1.9,2.9,3,2.2,5.2c-0.3,1.1,0.2,1.4,1,1.6c1.2,0.3,1-0.6,1.2-1.4c0.2-1.4,4.9-4.9,6.4-4.7c0.3,0,0.8,0.2,0.8,0.3
			C119.4,96.8,122.8,97.2,122.9,99.7z M106.9,108.5c0.4,0.2,0.7,0.4,0.9,0.4c8-0.4,15.9-0.9,23.9-1.3c1.4-0.1,1.9-0.8,1.9-2.1
			c0-1.5-0.8-2.1-2.3-2.1c-7.4-0.2-14.7-0.6-22.2,0.6c0.3,1.2,2.2,0.7,2.2,2.2C109.8,106.5,108.4,107.4,106.9,108.5z M63.6,86.1
			c1.5-1.6,1.1-3.2,1.2-4.8c0.1-6.3,0.1-6.3-6.3-5.9c-1.9,0.1-2.8,0.8-2.7,2.8c0.1,3.1-0.1,6.1,0,9.2c0.1,2-0.6,3.1-2.8,3
			c-2.3-0.1-4.6-0.2-6.9-0.1c-3.3,0.1-3.8,1.1-2.2,4.2c3.2-3.3,4.4-3,5.9,1.4c0.9,2.6,3,1.5,4.7,1.7c1.8,0.2,2.2-1.1,2.2-2.5
			c0-4.9,0.1-9.8,0-14.8c0-2.3,0.8-4,3.2-4.1c2.6-0.1,3.6,1.7,3.6,4.1C63.7,82.3,63.6,84.2,63.6,86.1z M131,84.2
			C131,84.2,131,84.2,131,84.2c0-1.4,0-2.8,0-4.3c0-0.9,0.1-1.8-1.2-2c-1.3-0.2-1.4,0.5-1.4,1.5c-0.1,1.3-1.2,1.9-2.1,1.6
			c-3.1-0.9-2.6,0.9-2.4,2.8c0.1,0.8,0.1,1.7,0,2.6c-0.3,2.3-0.3,4.1,2.8,2.3c0.5-0.3,1-0.2,1.5,0.2c2.9,2.5,2.8,0.3,2.8-1.8
			C131,86.2,131,85.2,131,84.2z"/>
		<path d="M77.4,114.1c7.5,0.3,14.4-0.2,21.3,0.5c7.2,0.7,14.4-0.4,21.6-1.4c0.9-0.1,2.3-0.8,2.5,0.5c0.3,1.5-1.3,1.5-2.3,1.7
			c-5.6,1.1-11.3,1.5-17,1.4c-14-0.1-28-0.3-42.1-0.4c-0.5,0-1.1,0-1.6-0.1c-0.7-0.1-1.4-0.3-1.4-1.1c0-0.8,0.8-1,1.4-1.1
			c2.6-0.1,5.3-0.1,7.9-0.1C71.2,114.1,74.6,114.1,77.4,114.1z"/>
	</g>
</g>
</svg>
