<?xml version="1.0" encoding="utf-8"?>
<!-- Generator: Adobe Illustrator 24.1.1, SVG Export Plug-In . SVG Version: 6.00 Build 0)  -->
<svg version="1.1" id="Layer_1" xmlns="http://www.w3.org/2000/svg" xmlns:xlink="http://www.w3.org/1999/xlink" x="0px" y="0px"
	 viewBox="0 0 170 170" style="enable-background:new 0 0 170 170;" xml:space="preserve">
<style type="text/css">
	.st0{fill:none;stroke:#A5A5A5;stroke-width:4;stroke-miterlimit:10;}
	.st1{fill:#FFFFFF;stroke:#000000;stroke-width:2;stroke-miterlimit:10;}
</style>
<g>
	<circle class="st0" cx="85.1" cy="86" r="80.5"/>
	<g id="layer2">
		<g id="g2447" transform="matrix(1.6904098,0,0,1.5359747,-165.69835,-85.772991)">
			<rect id="rect3185" x="146" y="78.3" class="st1" width="3.9" height="4.3"/>
			<g id="g2425">
				<path id="rect3158" class="st1" d="M137.6,134.5v5.9c-1.8,0.5-2.9,1.2-2.9,1.9c0,1.7,6.3,3.1,14,3.1c7.7,0,14-1.4,14-3.1
					c0-0.8-1.3-1.5-3.4-2v-5.7H137.6z"/>
				<path id="path3170" class="st1" d="M159,139.6c0,0.9-4.7,1.7-10.5,1.7c-5.4,0-9.9-0.7-10.5-1.5"/>
				<path id="path3177" class="st1" d="M136.9,134c-2.9-1.1-4.3-2.3-3.7-4.9c0,0-1.4-1.7-1.3-2.6c0-0.7,1.3-2,1.3-2
					c0.4-2.5-0.6-6.8,1.3-7.5v-13.4h0.8v-5.5h1.3v-6.9c1-1.6,3.3-2.6,5.5-2.9h-0.2"/>
				<rect id="rect3179" x="143.1" y="94.2" class="st1" width="9.7" height="4.8"/>
				<rect id="rect3181" x="141.6" y="88.4" class="st1" width="12.7" height="5.6"/>
				<rect id="rect3183" x="143.2" y="83.2" class="st1" width="9.5" height="3.8"/>
				<path id="path3193" class="st1" d="M139.7,133.7c0,0-3.5-3.9-4.2-6c-1.1-3.3-0.5-8.2,0-11.6c0.3-2.2,1.9-7.2,1.9-7.2l1.2-7
					l0.9-5.8l2.3-2.6l0,0"/>
				<rect id="rect3195" x="139.1" y="129.1" class="st1" width="6.8" height="5"/>
				<rect id="rect3199" x="151.2" y="128.7" class="st1" width="6.8" height="5"/>
				<path id="path3203" class="st1" d="M159.8,134.1c2.9-1.1,4.3-2.3,3.7-4.9c0,0,1.4-1.7,1.3-2.6c0-0.7-1.3-2-1.3-2
					c-0.4-2.5,0.6-6.8-1.3-7.5v-13.4h-0.8v-5.5H160v-6.9c-1-1.6-3.3-2.6-5.5-2.9h0.2"/>
				<path id="path3205" class="st1" d="M157.1,133.7c0,0,3.5-3.9,4.2-6c1.1-3.3,0.5-8.2,0-11.6c-0.3-2.2-1.9-7.2-1.9-7.2l-1.2-7
					l-0.9-5.8l-2.3-2.6l0,0"/>
				<path id="path3207" class="st1" d="M150.3,129.7c0,2-0.7,3.7-1.5,3.7s-1.5-1.6-1.5-3.7c0,0,0,0,0,0c0-2,0.7-3.7,1.5-3.7
					C149.6,126,150.2,127.6,150.3,129.7C150.3,129.7,150.3,129.7,150.3,129.7z"/>
				<path id="path3209" class="st1" d="M142.1,128.6c0,0-3.2-1.8-3.9-3.1c-1.1-2.3,0-8.5,0-8.5s1.7-3.9,2.1-5.6
					c0.7-2.6,0.6-6.1,1.2-8.7c0.2-1,1.1-3.2,1.1-3.2l0,0"/>
				<path id="path3211" class="st1" d="M154,128.7c0,0,3.2-1.8,3.9-3.1c1.1-2.4,0-8.7,0-8.7s-1.7-4-2.1-5.8
					c-0.6-2.6-0.6-6.3-1.2-8.9c-0.2-1-1.1-3.3-1.1-3.3l0,0"/>
				<path id="path3213" class="st1" d="M149.8,121.1c-4,4.2-8,6.8-8.9,5.8c-0.9-1,1.5-5.2,5.5-9.4c0,0,0,0,0,0c4-4.2,8-6.8,8.9-5.8
					C156.2,112.7,153.8,116.9,149.8,121.1C149.8,121.1,149.8,121.1,149.8,121.1z"/>
				<path id="path3215" class="st1" d="M140.7,111.9c0,0,5.8,5.5,8.2,8c2.3,2.4,7.2,8.5,7.2,8.5l0,0"/>
				<path id="path3217" class="st1" d="M147.1,90.4h7.2"/>
				<path id="path3219" class="st1" d="M145.2,100.1h5.7"/>
				<path id="path3221" class="st1" d="M137.2,139.2h5.9"/>
				<path id="path3223" class="st1" d="M159,139.4h-6.4"/>
			</g>
		</g>
	</g>
</g>
</svg>
