<?xml version="1.0" encoding="utf-8"?>
<!-- Generator: Adobe Illustrator 24.1.1, SVG Export Plug-In . SVG Version: 6.00 Build 0)  -->
<svg version="1.1" id="Layer_1" xmlns="http://www.w3.org/2000/svg" xmlns:xlink="http://www.w3.org/1999/xlink" x="0px" y="0px"
	 viewBox="0 0 170 170" style="enable-background:new 0 0 170 170;" xml:space="preserve">
<style type="text/css">
	.st0{fill:none;stroke:#A5A5A5;stroke-width:4;stroke-miterlimit:10;}
</style>
<g>
	<circle class="st0" cx="85.1" cy="86" r="80.5"/>
</g>
<g>
	<path d="M82.8,72.2c0.1-3.5,0.5-7-2.1-9.9c-0.1-0.1-0.1-0.3-0.2-0.5c-2.6-6.7-0.5-9.4,6.7-8.7c6.6,0.7,8.5,3.2,4.7,8.6
		c-5,7.2-2.8,15.3-4.3,22.9c-0.2,1.1,0.3,2.4,0.9,3.3c1.6,2.2,2.5,4.7,3,7.4c0.3,1.6,1.3,1.3,2.4,1.2c7.5-1.2,14.9-2.4,22.4-3.5
		c6.1-1,12.1-2,18.2-2.9c3.3-0.5,6.7,2.2,6.9,5.4c0.1,1.8-0.5,2.5-2.3,2.8c-9.2,1.5-18.4,3.1-27.6,4.7c-4.9,0.9-9.8,1.8-14.7,2.7
		c-0.9,0.2-1.9,0.4-2.4,1.1c-2.2,3.1-5.7,3.5-9,4c-1.7,0.3-3,0.8-4.1,2.1c-1.1,1.2-2.5,2.1-3.4,3.4c-3.1,4.2-7.3,4.9-12.1,4.4
		c-1.3-0.1-2.6-0.2-3.2-1.6c-0.6-1.4,0.5-2.1,1.3-2.9c2.6-2.5,5.2-5.1,7.9-7.6c1.1-1,1.4-1.6,0.4-3.2c-2.4-3.9-6.3-5-10-6.6
		c-9.4-4.2-18.9-8.3-28.4-12.4c-1.5-0.7-3-1.3-3-3.3c0-2.1,1.8-2.3,3.2-3.1c3.6-2.1,6.7-0.9,10.2,0.7c10.4,4.9,20.9,9.5,31.4,14.2
		c1.8,0.8,3,1,3.1-1.6c0-0.6,0.3-1.3,0.7-1.7c3.8-4.5,2.8-10.1,3.4-15.3C82.9,74.9,82.8,73.5,82.8,72.2z M34.3,82.8
		c0.2,0.8,0.8,0.9,1.2,1.1c11.1,5,22.3,9.9,33.4,14.8c0.4,0.2,0.8,0.4,1.3,0.4c1.4,0,2.2-1.2,2.9-2.1c0.4-0.5-0.4-0.8-0.9-1
		c-10.3-4.6-20.6-9.2-30.9-13.9C38.6,80.9,36.5,81.9,34.3,82.8z M85.5,74.2c0.2,0,0.3-0.1,0.5-0.1c0-2-0.1-4.1,0-6.1
		c0.1-2.3,0.7-4.4,2.6-6.1c1.4-1.2,2.1-3.3,1.7-5.1c-0.4-1.6-2.2-0.3-3.3-0.7c-0.7-0.2-1.4-0.3-2.1-0.3c-2.5-0.1-3.1,0.5-2.4,2.9
		c0.2,0.7,0.4,1.4,0.8,2c2.4,2.8,2.5,6.1,2.1,9.6C85.3,71.6,85.5,72.9,85.5,74.2z M88.1,99.9c-4.3-0.1-8.5-2.3-12.8-0.4
		c-1.1,0.5-2.5,0.6-2.1,2.1c0.3,1.6,1.6,1.5,3,1.3c2.4-0.4,4.7-1,7.1-0.6C85.4,102.7,86.8,101.6,88.1,99.9z M114.1,99
		c-6.3,1.4-12.5-0.3-19-0.2c1.8,2.8,3.6,4.3,6.7,2.9c0.3-0.1,0.7,0,1.1-0.1C106.7,101,110.5,100.5,114.1,99z M85.5,87.3
		c-0.9,1.1-1.7,1.6-1.9,2.3c-0.7,2.1-2.5,4.1-1.7,6.2c0.7,1.8,3.1,0.6,4.7,1.1c0.1,0,0.2,0,0.3,0c0.6,0.1,1.1-0.1,1.3-0.7
		c0.2-0.6-0.2-1-0.6-1.3C85.4,93.2,84.3,90.9,85.5,87.3z"/>
</g>
</svg>
